<svg width="20" height="20" viewBox="0 0 16 16" fill="none" xmlns="http://www.w3.org/2000/svg">
<path d="M6.66667 13.8513C6.08658 13.7192 5.52937 13.5015 5.01334 13.2053M9.33334 2.14868C10.6588 2.4514 11.8422 3.19514 12.6898 4.25815C13.5374 5.32116 13.999 6.64045 13.999 8.00002C13.999 9.35958 13.5374 10.6789 12.6898 11.7419C11.8422 12.8049 10.6588 13.5486 9.33334 13.8513M3.05267 11.3953C2.6894 10.8668 2.41323 10.2834 2.23467 9.66735M2.08267 7.00002C2.18934 6.36668 2.39467 5.76668 2.68267 5.21668L2.79534 5.01335M4.60467 3.05268C5.2288 2.62393 5.92845 2.3172 6.66667 2.14868" stroke="currentColor" stroke-width="2" stroke-linecap="round" stroke-linejoin="round"/>
</svg>
