<svg width="16" height="16" viewBox="0 0 16 16" fill="none" xmlns="http://www.w3.org/2000/svg">
<path d="M8 14.6667C7.07778 14.6667 6.21112 14.4916 5.4 14.1413C4.58889 13.7911 3.88334 13.3162 3.28334 12.7167C2.68334 12.1171 2.20845 11.4116 1.85867 10.6C1.50889 9.78845 1.33378 8.92179 1.33334 8.00001C1.33289 7.07823 1.508 6.21157 1.85867 5.40001C2.20934 4.58845 2.68423 3.8829 3.28334 3.28334C3.88245 2.68379 4.588 2.2089 5.4 1.85868C6.212 1.50845 7.07867 1.33334 8 1.33334C8.72223 1.33334 9.40556 1.4389 10.05 1.65001C10.6944 1.86112 11.2889 2.15557 11.8333 2.53334L10.8667 3.51668C10.4444 3.25001 9.99445 3.04179 9.51667 2.89201C9.03889 2.74223 8.53334 2.66712 8 2.66668C6.52223 2.66668 5.26378 3.18623 4.22467 4.22534C3.18556 5.26445 2.66623 6.52268 2.66667 8.00001C2.66711 9.47734 3.18667 10.7358 4.22534 11.7753C5.264 12.8149 6.52223 13.3342 8 13.3333C8.35556 13.3333 8.7 13.3 9.03334 13.2333C9.36667 13.1667 9.68889 13.0722 10 12.95L11 13.9667C10.5444 14.1889 10.0667 14.3611 9.56667 14.4833C9.06667 14.6056 8.54445 14.6667 8 14.6667ZM12.6667 13.3333V11.3333H10.6667V10H12.6667V8.00001H14V10H16V11.3333H14V13.3333H12.6667ZM7.06667 11.0667L4.23334 8.23334L5.16667 7.30001L7.06667 9.20001L13.7333 2.51668L14.6667 3.45001L7.06667 11.0667Z" fill="currentColor"/>
</svg>
