<svg width="20" height="20" viewBox="0 0 16 16" fill="none" xmlns="http://www.w3.org/2000/svg">
<path fill-rule="evenodd" clip-rule="evenodd" d="M4.338 12.274V1.91H5.338V12.273L7 10.749L7.676 11.486L4.838 14.089L2 11.486L2.676 10.749L4.338 12.274ZM10.628 2H12.372L13.353 5.271L13.373 5.322C13.4745 5.58553 13.5712 5.85091 13.663 6.118C13.743 6.35 13.824 6.605 13.886 6.838C13.944 7.054 14 7.303 14 7.5H13C13 7.447 12.978 7.313 12.92 7.096C12.8592 6.87561 12.7915 6.65717 12.717 6.441C12.6589 6.27153 12.5986 6.10285 12.536 5.935H10.464C10.411 6.077 10.347 6.254 10.283 6.441C10.207 6.663 10.133 6.894 10.08 7.096C10.022 7.313 10 7.447 10 7.5H9C9 7.303 9.056 7.054 9.114 6.837C9.176 6.605 9.257 6.35 9.337 6.118C9.42855 5.85083 9.52523 5.58545 9.627 5.322L9.647 5.272L10.628 2ZM10.792 4.935H12.208L11.628 3H11.372L10.792 4.935ZM9 9H14V10.25L10.333 13H14V14H9V12.75L12.667 10H9V9Z" fill="currentColor"/>
</svg>
