<svg width="16" height="16" viewBox="0 0 16 16" fill="none" xmlns="http://www.w3.org/2000/svg">
<path d="M8.36199 10.62L13.672 5.04699C13.7606 4.954 13.8101 4.83046 13.8101 4.70198C13.8101 4.57351 13.7606 4.44997 13.672 4.35699L13.666 4.35099C13.623 4.30575 13.5713 4.26973 13.514 4.24512C13.4566 4.2205 13.3949 4.20781 13.3325 4.20781C13.2701 4.20781 13.2084 4.2205 13.151 4.24512C13.0937 4.26973 13.042 4.30575 12.999 4.35099L7.99899 9.59899L3.00099 4.35099C2.95802 4.30575 2.90629 4.26973 2.84896 4.24512C2.79163 4.2205 2.72989 4.20781 2.66749 4.20781C2.6051 4.20781 2.54336 4.2205 2.48603 4.24512C2.42869 4.26973 2.37697 4.30575 2.33399 4.35099L2.32799 4.35699C2.23935 4.44997 2.1899 4.57351 2.1899 4.70198C2.1899 4.83046 2.23935 4.954 2.32799 5.04699L7.63799 10.62C7.68469 10.669 7.74085 10.708 7.80308 10.7347C7.86531 10.7613 7.9323 10.7751 7.99999 10.7751C8.06769 10.7751 8.13468 10.7613 8.19691 10.7347C8.25913 10.708 8.3153 10.669 8.36199 10.62Z" fill="currentColor"/>
</svg>
