<svg width="20" height="20" viewBox="0 0 16 16" fill="none" xmlns="http://www.w3.org/2000/svg">
<path d="M13.0178 15.1111H2.98223C2.88301 15.1117 2.78464 15.0927 2.69275 15.0553C2.60086 15.0179 2.51724 14.9627 2.44667 14.893C2.37609 14.8232 2.31995 14.7402 2.28144 14.6488C2.24293 14.5573 2.22281 14.4592 2.22223 14.36V2.97332C2.22487 2.86338 2.25079 2.75525 2.29829 2.65606C2.34579 2.55687 2.41378 2.46888 2.49778 2.3979C2.58178 2.32692 2.67988 2.27456 2.78561 2.24427C2.89133 2.21399 3.00228 2.20647 3.11112 2.22221H4.00001V3.1111H3.11112V14.2222H12.8889V3.1111H12V2.22221H13C13.1007 2.21925 13.201 2.23645 13.2949 2.27281C13.3889 2.30918 13.4746 2.36396 13.5471 2.43395C13.6196 2.50393 13.6773 2.5877 13.7169 2.68033C13.7565 2.77296 13.7772 2.87258 13.7778 2.97332V14.36C13.7772 14.4592 13.7571 14.5573 13.7186 14.6488C13.6801 14.7402 13.6239 14.8232 13.5533 14.893C13.4828 14.9627 13.3992 15.0179 13.3073 15.0553C13.2154 15.0927 13.117 15.1117 13.0178 15.1111Z" fill="currentColor"/>
<path d="M7.40444 11.4489L5.02222 9.06667C4.94997 8.98114 4.91266 8.87148 4.91776 8.75964C4.92286 8.64779 4.96998 8.54198 5.04971 8.46338C5.12944 8.38477 5.2359 8.33915 5.34781 8.33564C5.45972 8.33213 5.56883 8.37099 5.65333 8.44445L7.40444 10.1956L11.2444 6.35556C11.3295 6.28275 11.4388 6.2447 11.5507 6.24902C11.6625 6.25334 11.7686 6.29971 11.8478 6.37886C11.927 6.45802 11.9733 6.56412 11.9776 6.67598C11.982 6.78783 11.9439 6.8972 11.8711 6.98222L7.40444 11.4489Z" fill="currentColor"/>
<path d="M11.5556 4.88889H4.44444V3.25778C4.44561 2.98349 4.55509 2.72078 4.74904 2.52683C4.94299 2.33287 5.20571 2.2234 5.48 2.22223H6.27555C6.37347 1.83982 6.59587 1.50088 6.90769 1.25883C7.21952 1.01679 7.60303 0.885406 7.99778 0.885406C8.39252 0.885406 8.77603 1.01679 9.08786 1.25883C9.39969 1.50088 9.62209 1.83982 9.72 2.22223H10.5156C10.7906 2.22222 11.0545 2.33118 11.2494 2.52526C11.4443 2.71934 11.5544 2.98273 11.5556 3.25778V4.88889ZM5.33333 4H10.6667V3.25778C10.6667 3.21888 10.6512 3.18158 10.6237 3.15407C10.5962 3.12657 10.5589 3.11111 10.52 3.11111H8.88889V2.66667C8.88889 2.43092 8.79524 2.20483 8.62854 2.03813C8.46184 1.87143 8.23575 1.77778 8 1.77778C7.76425 1.77778 7.53816 1.87143 7.37146 2.03813C7.20476 2.20483 7.11111 2.43092 7.11111 2.66667V3.11111H5.48C5.46074 3.11111 5.44167 3.11491 5.42387 3.12228C5.40608 3.12965 5.38991 3.14045 5.37629 3.15407C5.36267 3.16769 5.35187 3.18386 5.3445 3.20165C5.33713 3.21945 5.33333 3.23852 5.33333 3.25778V4Z" fill="currentColor"/>
</svg>
