<svg width="20" height="20" viewBox="0 0 16 16" fill="none" xmlns="http://www.w3.org/2000/svg">
<path d="M14.3333 2.66666H12.8889V3.55555H14.2222V13.3333H1.77778V3.55555H3.11112V2.66666H1.66667C1.56278 2.66839 1.46024 2.69058 1.36492 2.73195C1.2696 2.77332 1.18337 2.83306 1.11114 2.90776C1.03892 2.98247 0.982114 3.07067 0.94398 3.16732C0.905846 3.26398 0.887127 3.36721 0.888893 3.4711V13.4178C0.887127 13.5217 0.905846 13.6249 0.94398 13.7215C0.982114 13.8182 1.03892 13.9064 1.11114 13.9811C1.18337 14.0558 1.2696 14.1156 1.36492 14.1569C1.46024 14.1983 1.56278 14.2205 1.66667 14.2222H14.3333C14.4372 14.2205 14.5398 14.1983 14.6351 14.1569C14.7304 14.1156 14.8166 14.0558 14.8889 13.9811C14.9611 13.9064 15.0179 13.8182 15.056 13.7215C15.0942 13.6249 15.1129 13.5217 15.1111 13.4178V3.4711C15.1129 3.36721 15.0942 3.26398 15.056 3.16732C15.0179 3.07067 14.9611 2.98247 14.8889 2.90776C14.8166 2.83306 14.7304 2.77332 14.6351 2.73195C14.5398 2.69058 14.4372 2.66839 14.3333 2.66666Z" fill="currentColor"/>
<path d="M3.55556 6.22223H4.44445V7.11112H3.55556V6.22223Z" fill="currentColor"/>
<path d="M6.22223 6.22223H7.11112V7.11112H6.22223V6.22223Z" fill="currentColor"/>
<path d="M8.88889 6.22223H9.77777V7.11112H8.88889V6.22223Z" fill="currentColor"/>
<path d="M11.5556 6.22223H12.4444V7.11112H11.5556V6.22223Z" fill="currentColor"/>
<path d="M3.55556 8.44446H4.44445V9.33335H3.55556V8.44446Z" fill="currentColor"/>
<path d="M6.22223 8.44446H7.11112V9.33335H6.22223V8.44446Z" fill="currentColor"/>
<path d="M8.88889 8.44446H9.77777V9.33335H8.88889V8.44446Z" fill="currentColor"/>
<path d="M11.5556 8.44446H12.4444V9.33335H11.5556V8.44446Z" fill="currentColor"/>
<path d="M3.55556 10.6667H4.44445V11.5555H3.55556V10.6667Z" fill="currentColor"/>
<path d="M6.22223 10.6667H7.11112V11.5555H6.22223V10.6667Z" fill="currentColor"/>
<path d="M8.88889 10.6667H9.77777V11.5555H8.88889V10.6667Z" fill="currentColor"/>
<path d="M11.5556 10.6667H12.4444V11.5555H11.5556V10.6667Z" fill="currentColor"/>
<path d="M4.44444 4.44444C4.56232 4.44444 4.67536 4.39762 4.75871 4.31427C4.84206 4.23092 4.88889 4.11787 4.88889 4V1.33333C4.88889 1.21546 4.84206 1.10241 4.75871 1.01906C4.67536 0.935711 4.56232 0.888885 4.44444 0.888885C4.32657 0.888885 4.21352 0.935711 4.13017 1.01906C4.04683 1.10241 4 1.21546 4 1.33333V4C4 4.11787 4.04683 4.23092 4.13017 4.31427C4.21352 4.39762 4.32657 4.44444 4.44444 4.44444Z" fill="currentColor"/>
<path d="M11.5556 4.44444C11.6734 4.44444 11.7865 4.39762 11.8698 4.31427C11.9532 4.23092 12 4.11787 12 4V1.33333C12 1.21546 11.9532 1.10241 11.8698 1.01906C11.7865 0.935711 11.6734 0.888885 11.5556 0.888885C11.4377 0.888885 11.3246 0.935711 11.2413 1.01906C11.1579 1.10241 11.1111 1.21546 11.1111 1.33333V4C11.1111 4.11787 11.1579 4.23092 11.2413 4.31427C11.3246 4.39762 11.4377 4.44444 11.5556 4.44444Z" fill="currentColor"/>
<path d="M5.77777 2.66666H10.2222V3.55555H5.77777V2.66666Z" fill="currentColor"/>
</svg>
