<svg width="20" height="20" viewBox="0 0 16 16" fill="none" xmlns="http://www.w3.org/2000/svg">
<path d="M8.00002 4.66668L10.6667 7.33335M8.00002 4.66668L5.33335 7.44468M8.00002 4.66668V10.6667M7.71735 0.949348C7.79235 0.874441 7.89402 0.832367 8.00002 0.832367C8.10602 0.832367 8.20768 0.874441 8.28268 0.949348L15.0507 7.71735C15.1256 7.79235 15.1677 7.89402 15.1677 8.00002C15.1677 8.10602 15.1256 8.20768 15.0507 8.28268L8.28268 15.0507C8.20768 15.1256 8.10602 15.1677 8.00002 15.1677C7.89402 15.1677 7.79235 15.1256 7.71735 15.0507L0.949348 8.28268C0.874441 8.20768 0.832367 8.10602 0.832367 8.00002C0.832367 7.89402 0.874441 7.79235 0.949348 7.71735L7.71735 0.949348Z" stroke="currentColor" stroke-linecap="round" stroke-linejoin="round"/>
</svg>
