<svg width="16" height="16" viewBox="0 0 16 16" fill="none" xmlns="http://www.w3.org/2000/svg">
<path d="M8.00001 1.33334C11.682 1.33334 14.6667 4.31801 14.6667 8.00001C14.6667 11.682 11.682 14.6667 8.00001 14.6667C4.31801 14.6667 1.33334 11.682 1.33334 8.00001C1.33334 4.31801 4.31801 1.33334 8.00001 1.33334ZM8.00001 2.66668C6.58552 2.66668 5.22897 3.22858 4.22877 4.22877C3.22858 5.22897 2.66668 6.58552 2.66668 8.00001C2.66668 9.4145 3.22858 10.7711 4.22877 11.7712C5.22897 12.7714 6.58552 13.3333 8.00001 13.3333C9.4145 13.3333 10.7711 12.7714 11.7712 11.7712C12.7714 10.7711 13.3333 9.4145 13.3333 8.00001C13.3333 6.58552 12.7714 5.22897 11.7712 4.22877C10.7711 3.22858 9.4145 2.66668 8.00001 2.66668ZM8.00001 4.00001C8.1633 4.00003 8.3209 4.05998 8.44292 4.16849C8.56495 4.27699 8.6429 4.42651 8.66201 4.58868L8.66668 4.66668V7.72401L10.4713 9.52868C10.5909 9.64865 10.6603 9.80963 10.6655 9.97893C10.6707 10.1482 10.6112 10.3132 10.4992 10.4402C10.3872 10.5672 10.231 10.6469 10.0624 10.6629C9.89375 10.679 9.72534 10.6303 9.59134 10.5267L9.52868 10.4713L7.52868 8.47134C7.42506 8.36764 7.35852 8.23268 7.33934 8.08734L7.33334 8.00001V4.66668C7.33334 4.48987 7.40358 4.3203 7.52861 4.19527C7.65363 4.07025 7.8232 4.00001 8.00001 4.00001Z" fill="currentColor"/>
</svg>
