<svg width="16" height="16" viewBox="0 0 16 16" fill="none" xmlns="http://www.w3.org/2000/svg">
<path d="M14.5 4H1.5C1.22 4 1 3.78 1 3.5C1 3.22 1.22 3 1.5 3H14.5C14.78 3 15 3.22 15 3.5C15 3.78 14.78 4 14.5 4Z" fill="currentColor"/>
<path d="M11.02 3.80999L10.58 2.34999C10.5497 2.24613 10.4865 2.1549 10.4 2.08999C10.3134 2.02508 10.2082 1.98999 10.1 1.98999H5.89999C5.7918 1.98999 5.68654 2.02508 5.59999 2.08999C5.51344 2.1549 5.45028 2.24613 5.41999 2.34999L4.97999 3.80999L4.01999 3.51999L4.45999 2.05999C4.64999 1.41999 5.22999 0.98999 5.89999 0.98999H10.1C10.77 0.98999 11.34 1.41999 11.54 2.05999L11.98 3.51999L11.02 3.80999Z" fill="currentColor"/>
<path d="M11.53 15H4.47C3.66 15 3 14.36 2.97 13.55L2.63 3.67999L3.63 3.64999L3.97 13.52C3.97 13.79 4.2 14 4.47 14H11.54C11.81 14 12.03 13.79 12.04 13.52L12.38 3.64999L13.38 3.67999L13.04 13.55C13.01 14.36 12.35 15 11.54 15H11.53Z" fill="currentColor"/>
<path d="M6.5 11.62C6.22 11.62 6 11.4 6 11.12V7.12C6 6.84 6.22 6.62 6.5 6.62C6.78 6.62 7 6.84 7 7.12V11.12C7 11.4 6.78 11.62 6.5 11.62ZM9.5 11.62C9.22 11.62 9 11.4 9 11.12V7.12C9 6.84 9.22 6.62 9.5 6.62C9.78 6.62 10 6.84 10 7.12V11.12C10 11.4 9.78 11.62 9.5 11.62Z" fill="currentColor"/>
</svg>
